<svg xmlns="http://www.w3.org/2000/svg" xmlns:xlink="http://www.w3.org/1999/xlink" width="500" zoomAndPan="magnify" viewBox="0 0 375 374.999991" height="500" preserveAspectRatio="xMidYMid meet" version="1.0"><defs><g/><clipPath id="0d0a6216bb"><path d="M 115.785156 81.949219 L 258.980469 81.949219 L 258.980469 244.699219 L 115.785156 244.699219 Z M 115.785156 81.949219 " clip-rule="nonzero"/></clipPath></defs><rect x="-37.5" width="450" fill="#ffffff" y="-37.499999" height="449.999989" fill-opacity="1"/><rect x="-37.5" width="450" fill="#050529" y="-37.499999" height="449.999989" fill-opacity="1"/><g clip-path="url(#0d0a6216bb)"><path fill="#0dbca6" d="M 180.160156 100.929688 L 180.160156 103.925781 L 160.597656 103.925781 L 153.929688 96.769531 L 150.214844 92.78125 L 133.964844 92.78125 C 133.039062 90.757812 131.011719 89.363281 128.648438 89.363281 C 125.417969 89.363281 122.78125 91.980469 122.78125 95.230469 C 122.78125 98.460938 125.417969 101.078125 128.648438 101.078125 C 131.011719 101.078125 133.039062 99.683594 133.964844 97.675781 L 148.082031 97.675781 L 153.910156 103.925781 L 158.46875 108.820312 L 180.164062 108.820312 L 180.164062 122.578125 L 148.191406 122.578125 C 147.265625 120.574219 145.238281 119.179688 142.875 119.179688 C 139.644531 119.179688 137.007812 121.796875 137.007812 125.023438 C 137.007812 128.25 139.644531 130.890625 142.875 130.890625 C 145.238281 130.890625 147.265625 129.476562 148.191406 127.472656 L 180.164062 127.472656 L 180.164062 137.476562 L 151.398438 137.476562 L 146.839844 142.371094 L 141.011719 148.640625 L 126.894531 148.640625 C 125.96875 146.613281 123.941406 145.222656 121.574219 145.222656 C 118.351562 145.226562 115.730469 147.84375 115.730469 151.09375 C 115.730469 154.320312 118.351562 156.9375 121.574219 156.9375 C 123.941406 156.9375 125.96875 155.546875 126.894531 153.539062 L 143.148438 153.539062 L 146.859375 149.527344 L 153.527344 142.371094 L 180.160156 142.371094 L 180.160156 162.039062 L 165.828125 162.039062 C 164.902344 160.035156 162.875 158.640625 160.511719 158.640625 C 157.28125 158.640625 154.667969 161.261719 154.667969 164.484375 C 154.667969 167.734375 157.285156 170.355469 160.511719 170.355469 C 162.875 170.355469 164.902344 168.960938 165.828125 166.933594 L 180.160156 166.933594 L 180.160156 195.617188 L 169.015625 195.617188 L 158.632812 184.472656 L 149.875 184.472656 C 148.949219 182.46875 146.921875 181.054688 144.558594 181.054688 C 141.328125 181.054688 138.714844 183.691406 138.714844 186.921875 C 138.714844 190.152344 141.332031 192.765625 144.558594 192.765625 C 146.921875 192.765625 148.949219 191.375 149.875 189.367188 L 156.5 189.367188 L 166.882812 200.511719 L 180.15625 200.511719 L 180.15625 212.371094 L 172.390625 212.371094 L 162.007812 223.515625 L 134.976562 223.515625 C 134.050781 221.511719 132.023438 220.117188 129.660156 220.117188 C 126.429688 220.117188 123.8125 222.734375 123.8125 225.960938 C 123.8125 229.210938 126.433594 231.828125 129.660156 231.828125 C 132.023438 231.828125 134.050781 230.4375 134.976562 228.410156 L 164.140625 228.410156 L 174.523438 217.265625 L 180.15625 217.265625 L 180.15625 233.070312 L 185.050781 238.539062 L 186.085938 239.675781 L 190.476562 244.570312 L 214.191406 244.570312 L 218.585938 239.675781 L 226.351562 231.023438 L 231.246094 225.582031 L 231.246094 218.257812 L 232.828125 216.488281 L 242.875 205.300781 L 247.773438 199.855469 L 247.773438 184.605469 L 254.355469 177.304688 L 259.25 171.835938 L 259.25 150.988281 L 254.355469 145.542969 L 243.992188 134 L 243.992188 121.570312 L 239.097656 116.101562 L 229.601562 105.527344 L 225.84375 101.371094 L 225.84375 94.027344 L 220.949219 88.582031 L 219.40625 86.851562 L 215.023438 81.957031 L 190.609375 81.957031 L 186.21875 86.851562 L 185.058594 88.140625 L 180.164062 93.609375 L 180.164062 100.929688 Z M 198.394531 221.683594 C 195.144531 221.683594 192.527344 219.066406 192.527344 215.816406 C 192.527344 214.972656 192.695312 214.191406 193.011719 213.476562 L 185.054688 204.632812 L 185.054688 231.199219 L 192.671875 239.679688 L 212.023438 239.679688 L 226.355469 223.703125 L 226.355469 220.121094 L 219.433594 212.398438 L 214.539062 206.953125 L 214.539062 193.597656 C 212.511719 192.667969 211.097656 190.621094 211.097656 188.253906 C 211.097656 185.007812 213.734375 182.367188 216.984375 182.367188 C 220.214844 182.367188 222.851562 185.007812 222.851562 188.253906 C 222.851562 190.621094 221.4375 192.664062 219.433594 193.597656 L 219.433594 205.078125 L 227.957031 214.59375 L 231.25 210.921875 L 242.875 197.988281 L 242.875 186.484375 L 233.546875 176.101562 L 216.855469 176.101562 C 215.929688 178.128906 213.882812 179.519531 211.515625 179.519531 C 208.265625 179.519531 205.628906 176.902344 205.628906 173.652344 C 205.628906 170.402344 208.265625 167.765625 211.515625 167.765625 C 213.882812 167.765625 215.925781 169.179688 216.855469 171.207031 L 235.746094 171.207031 L 240.136719 176.101562 L 244.488281 180.953125 L 247.777344 177.28125 L 254.359375 169.960938 L 254.359375 152.863281 L 244 141.320312 L 242.394531 139.527344 L 232.984375 150.015625 C 233.277344 150.734375 233.46875 151.535156 233.46875 152.359375 C 233.46875 155.605469 230.828125 158.246094 227.582031 158.246094 C 224.332031 158.246094 221.714844 155.605469 221.714844 152.359375 C 221.714844 149.109375 224.332031 146.492188 227.582031 146.492188 C 228.191406 146.492188 228.785156 146.574219 229.332031 146.742188 L 239.105469 135.875 L 239.105469 123.445312 L 225.851562 108.695312 L 224.246094 106.902344 L 213.125 119.308594 L 213.125 150.164062 L 208.230469 155.605469 L 206.332031 157.71875 C 206.628906 158.4375 206.816406 159.238281 206.816406 160.058594 C 206.816406 163.308594 204.179688 165.945312 200.929688 165.945312 C 197.679688 165.945312 195.0625 163.308594 195.0625 160.058594 C 195.0625 156.808594 197.679688 154.191406 200.929688 154.191406 C 201.542969 154.191406 202.132812 154.277344 202.683594 154.445312 L 208.230469 148.28125 L 208.230469 117.429688 L 213.125 111.960938 L 220.957031 103.226562 L 220.957031 95.90625 L 220.722656 95.65625 L 212.832031 86.851562 L 192.800781 86.851562 L 185.058594 95.484375 L 185.058594 122.03125 L 194.386719 132.4375 C 194.953125 132.246094 195.523438 132.164062 196.140625 132.164062 C 199.386719 132.164062 202.027344 134.800781 202.027344 138.050781 C 202.027344 141.28125 199.386719 143.917969 196.140625 143.917969 C 192.890625 143.917969 190.269531 141.28125 190.269531 138.050781 C 190.269531 137.203125 190.441406 136.425781 190.757812 135.707031 L 185.058594 129.375 L 185.058594 197.308594 L 196.644531 210.199219 C 197.191406 210.03125 197.78125 209.925781 198.394531 209.925781 C 201.644531 209.925781 204.28125 212.5625 204.28125 215.8125 C 204.28125 219.0625 201.640625 221.683594 198.394531 221.683594 Z M 198.394531 221.683594 " fill-opacity="1" fill-rule="evenodd"/></g><g fill="#0dbca6" fill-opacity="1"><g transform="translate(87.341819, 308.113)"><g><path d="M 14.0625 -29.640625 C 17.851562 -29.640625 19.75 -27.625 19.75 -23.59375 L 19.75 -6.046875 C 19.75 -2.015625 17.851562 0 14.0625 0 L 2.296875 0 L 2.296875 -29.640625 Z M 13.328125 -5.3125 L 13.328125 -24.375 C 13.328125 -24.613281 13.242188 -24.820312 13.078125 -25 C 12.910156 -25.1875 12.707031 -25.28125 12.46875 -25.28125 L 8.703125 -25.28125 L 8.703125 -4.390625 L 12.46875 -4.390625 C 12.707031 -4.390625 12.910156 -4.484375 13.078125 -4.671875 C 13.242188 -4.859375 13.328125 -5.070312 13.328125 -5.3125 Z M 13.328125 -5.3125 "/></g></g></g><g fill="#0dbca6" fill-opacity="1"><g transform="translate(115.516574, 308.113)"><g><path d="M 8.703125 -5.3125 L 15.8125 -5.3125 L 15.8125 0 L 2.296875 0 L 2.296875 -29.640625 L 15.8125 -29.640625 L 15.8125 -24.421875 L 8.703125 -24.421875 L 8.703125 -17.453125 L 15.34375 -17.453125 L 15.34375 -12.421875 L 8.703125 -12.421875 Z M 8.703125 -5.3125 "/></g></g></g><g fill="#0dbca6" fill-opacity="1"><g transform="translate(138.698036, 308.113)"><g><path d="M 19.28125 0 L 12.875 0 L 12.875 -24.59375 C 12.875 -24.84375 12.789062 -25.054688 12.625 -25.234375 C 12.457031 -25.421875 12.25 -25.515625 12 -25.515625 L 9.53125 -25.515625 C 9.28125 -25.515625 9.070312 -25.421875 8.90625 -25.234375 C 8.738281 -25.054688 8.65625 -24.84375 8.65625 -24.59375 L 8.65625 0 L 2.25 0 L 2.25 -24.046875 C 2.25 -28.078125 4.140625 -30.09375 7.921875 -30.09375 L 13.609375 -30.09375 C 17.390625 -30.09375 19.28125 -28.078125 19.28125 -24.046875 Z M 19.28125 0 "/></g></g></g><g fill="#0dbca6" fill-opacity="1"><g transform="translate(165.956596, 308.113)"><g><path d="M 14.0625 -29.640625 C 17.851562 -29.640625 19.75 -27.625 19.75 -23.59375 L 19.75 -6.046875 C 19.75 -2.015625 17.851562 0 14.0625 0 L 2.296875 0 L 2.296875 -29.640625 Z M 13.328125 -5.3125 L 13.328125 -24.375 C 13.328125 -24.613281 13.242188 -24.820312 13.078125 -25 C 12.910156 -25.1875 12.707031 -25.28125 12.46875 -25.28125 L 8.703125 -25.28125 L 8.703125 -4.390625 L 12.46875 -4.390625 C 12.707031 -4.390625 12.910156 -4.484375 13.078125 -4.671875 C 13.242188 -4.859375 13.328125 -5.070312 13.328125 -5.3125 Z M 13.328125 -5.3125 "/></g></g></g><g fill="#0dbca6" fill-opacity="1"><g transform="translate(194.131352, 308.113)"><g><path d="M 8.703125 -12.140625 L 8.703125 0 L 2.296875 0 L 2.296875 -29.640625 L 13.703125 -29.640625 C 17.484375 -29.640625 19.375 -27.625 19.375 -23.59375 L 19.375 -20.15625 C 19.375 -17.71875 18.503906 -16.160156 16.765625 -15.484375 C 18.296875 -14.929688 19.0625 -13.679688 19.0625 -11.734375 L 19.0625 0 L 12.640625 0 L 12.640625 -11.21875 C 12.640625 -11.832031 12.351562 -12.140625 11.78125 -12.140625 Z M 8.703125 -25.28125 L 8.703125 -16.625 L 12.09375 -16.625 C 12.34375 -16.625 12.550781 -16.71875 12.71875 -16.90625 C 12.882812 -17.09375 12.96875 -17.304688 12.96875 -17.546875 L 12.96875 -24.375 C 12.96875 -24.613281 12.882812 -24.820312 12.71875 -25 C 12.550781 -25.1875 12.34375 -25.28125 12.09375 -25.28125 Z M 8.703125 -25.28125 "/></g></g></g><g fill="#0dbca6" fill-opacity="1"><g transform="translate(221.298277, 308.113)"><g><path d="M 19.46875 -29.640625 L 13.109375 -10.8125 L 13.109375 0 L 6.6875 0 L 6.6875 -10.8125 L 0.328125 -29.640625 L 6.375 -29.640625 L 9.890625 -17.265625 L 13.421875 -29.640625 Z M 19.46875 -29.640625 "/></g></g></g><g fill="#0dbca6" fill-opacity="1"><g transform="translate(247.182527, 308.113)"><g><path d="M 0.59375 -24.1875 L 0.59375 -29.640625 L 16.625 -29.640625 L 16.625 -24.1875 L 11.8125 -24.1875 L 11.8125 0 L 5.40625 0 L 5.40625 -24.1875 Z M 0.59375 -24.1875 "/></g></g></g><g fill="#0dbca6" fill-opacity="1"><g transform="translate(270.409797, 308.113)"><g><path d="M 8.703125 -5.3125 L 15.8125 -5.3125 L 15.8125 0 L 2.296875 0 L 2.296875 -29.640625 L 15.8125 -29.640625 L 15.8125 -24.421875 L 8.703125 -24.421875 L 8.703125 -17.453125 L 15.34375 -17.453125 L 15.34375 -12.421875 L 8.703125 -12.421875 Z M 8.703125 -5.3125 "/></g></g></g></svg>